<?xml version="1.0" standalone="no"?>
<!DOCTYPE svg PUBLIC "-//W3C//DTD SVG 20010904//EN"
 "http://www.w3.org/TR/2001/REC-SVG-20010904/DTD/svg10.dtd">
<svg version="1.0" xmlns="http://www.w3.org/2000/svg"
 width="16.000000pt" height="16.000000pt" viewBox="0 0 16.000000 16.000000"
 preserveAspectRatio="xMidYMid meet">
<metadata>
Created by potrace 1.11, written by Peter Selinger 2001-2013
</metadata>
<g transform="translate(0.000000,16.000000) scale(0.005461,-0.005461)"
fill="#000000" stroke="none">
<path d="M1894 2219 l-52 -20 0 -342 c0 -188 -1 -346 -1 -352 -1 -5 -16 15
-33 45 -38 66 -127 157 -193 199 -27 17 -52 31 -57 31 -4 0 -18 -23 -31 -50
l-24 -50 37 -23 c208 -124 295 -395 198 -612 -41 -91 -136 -196 -220 -241 -14
-8 -13 -14 10 -61 l27 -52 60 38 c77 49 150 125 192 198 18 32 33 51 34 43 0
-8 1 -73 2 -145 l2 -130 56 -1 56 -1 2 773 c1 426 -2 774 -6 773 -4 0 -31 -9
-59 -20z"/>
<path d="M1040 1773 c-29 -11 -95 -61 -139 -104 -113 -113 -174 -259 -176
-419 -2 -108 5 -147 42 -240 32 -79 72 -140 134 -201 53 -53 133 -109 154
-109 10 0 55 77 55 95 0 1 -22 16 -48 33 -97 63 -181 178 -211 290 -7 24 -12
78 -13 121 -2 164 88 325 230 415 24 15 42 30 39 34 -2 4 -12 26 -22 50 -19
43 -20 44 -45 35z"/>
<path d="M2110 814 c-33 -11 -35 -14 -37 -63 -1 -28 1 -51 4 -51 15 0 89 25
93 32 3 4 5 26 5 49 -1 48 -10 52 -65 33z"/>
</g>
</svg>
