<svg xmlns="http://www.w3.org/2000/svg" viewBox="0 0 75.56 80.53"><defs><style>.cls-1{fill:none;stroke:#fefefe;stroke-miterlimit:10;stroke-width:6px;}.cls-2{fill:#fefefe;}</style></defs><title>logo_1</title><g id="Calque_2" data-name="Calque 2"><g id="Calque_1-2" data-name="Calque 1"><path class="cls-1" d="M19,26.6A28.48,28.48,0,0,0,3,52.2H3A28.46,28.46,0,0,0,17.29,76.9q.84.48,1.72.91"/><path class="cls-1" d="M42.09,26.61a28.48,28.48,0,0,1,16,25.61h0A28.46,28.46,0,0,1,43.8,76.92q-.84.48-1.72.91"/><polygon class="cls-2" points="58.54 2.13 64.53 0 64.46 80.52 58.55 80.52 58.54 2.13"/><g id="Calque_11" data-name="Calque 11"><polygon class="cls-2" points="70.5 74.82 75.56 73.41 75.56 78.83 70.5 80.24 70.5 74.82"/></g></g></g></svg>