<?xml version="1.0" encoding="utf-8"?>
<!-- Generator: Adobe Illustrator 21.0.2, SVG Export Plug-In . SVG Version: 6.00 Build 0)  -->
<svg version="1.1" id="Calque_1" xmlns="http://www.w3.org/2000/svg" xmlns:xlink="http://www.w3.org/1999/xlink" x="0px" y="0px"
	 viewBox="0 0 75.6 80.5" style="enable-background:new 0 0 75.6 80.5;" xml:space="preserve">
<style type="text/css">
	.st0{fill:none;stroke:#FEFEFE;stroke-width:6;stroke-miterlimit:10;}
	.st1{fill:#FEFEFE;}
</style>
<title>Fichier 2</title>
<path class="st0" d="M19,26.6C9.2,31.4,3,41.3,3,52.2l0,0c0,10.2,5.4,19.6,14.3,24.7c0.6,0.3,1.1,0.6,1.7,0.9"/>
<path class="st0" d="M42.1,26.6c9.8,4.8,16,14.7,16,25.6l0,0c0,10.2-5.4,19.6-14.3,24.7c-0.6,0.3-1.1,0.6-1.7,0.9"/>
<polygon class="st1" points="58.5,2.1 64.5,0 64.5,80.5 58.5,80.5 "/>
<g id="Calque_11">
	<polygon class="st1" points="70.5,74.8 75.6,73.4 75.6,78.8 70.5,80.2 	"/>
</g>
</svg>
